<svg id="Capa_1" data-name="Capa 1" xmlns="http://www.w3.org/2000/svg" viewBox="0 0 568.39 662.94"><defs><style>.cls-1{font-size:117.58px;letter-spacing:-0.04em;}.cls-1,.cls-7{fill:#1a3350;}.cls-1,.cls-3{font-family:ConthraxSb-Regular, Conthrax;}.cls-2{letter-spacing:0em;}.cls-3{font-size:51.75px;}.cls-3,.cls-8{fill:#efa92c;}.cls-4{letter-spacing:-0.04em;}.cls-5{letter-spacing:-0.19em;}.cls-6{letter-spacing:-0.13em;}</style></defs><text class="cls-1" transform="translate(75.89 596.51)">A<tspan class="cls-2" x="109.94" y="0">CHE</tspan></text><text class="cls-3" transform="translate(75.9 648.87)">INN<tspan class="cls-4" x="116.01" y="0">O</tspan><tspan class="cls-5" x="164.91" y="0">V</tspan><tspan class="cls-6" x="205.53" y="0">A</tspan><tspan x="249.26" y="0">TION</tspan></text><path class="cls-7" d="M391.87,441.67a19.57,19.57,0,0,0,39,3.11l21.2-123.58a30.87,30.87,0,0,0-61.55-4.91Z"/><path class="cls-7" d="M508,336.44a14.24,14.24,0,0,0-.69,7.44A14,14,0,0,0,535,343.2l-.09.55,8.65-32.8.08-.17a14.58,14.58,0,0,0,1-5.36,14.12,14.12,0,0,0-8.86-13.13l-35.47-18.93L498,272.11a22.71,22.71,0,0,0-32,15.69,22.87,22.87,0,0,0,22.29,27.82l16.48,2.15a6.13,6.13,0,0,1,5.2,7.36l-2.69,12.56"/><path class="cls-8" d="M160.25,391.05l7.26-25.72a17.88,17.88,0,0,0,.27-8.6L155.5,300c-5.1-23.62,4.66-48.62,25.53-60.8a56.34,56.34,0,0,1,30.83-7.65C240.5,232.67,264.33,256,266,284.61a56.51,56.51,0,0,1-4.85,26.67h0l-51.89,99a9.71,9.71,0,0,0,1.34,11l15.89,17.87a21,21,0,1,1-33.57,24.19h0L163,414.92v0a26.69,26.69,0,0,1-2.8-23.91"/><path class="cls-7" d="M208.9,314.24a30.44,30.44,0,1,1,30.44-30.44A30.47,30.47,0,0,1,208.9,314.24Zm0-56.56A26.12,26.12,0,1,0,235,283.8,26.15,26.15,0,0,0,208.9,257.68Z"/><path class="cls-7" d="M198.93,370.89a20,20,0,1,1,20-20A20,20,0,0,1,198.93,370.89Zm0-35.6a15.64,15.64,0,1,0,15.64,15.64A15.65,15.65,0,0,0,198.93,335.29Z"/><path class="cls-7" d="M184.82,413.84a13.12,13.12,0,1,1,13.11-13.12A13.14,13.14,0,0,1,184.82,413.84Zm0-21.91a8.79,8.79,0,1,0,8.79,8.79A8.81,8.81,0,0,0,184.82,391.93Z"/><rect class="cls-7" x="191.04" y="321.7" width="23.82" height="4.32" transform="translate(-147.15 477.19) rotate(-81.58)"/><rect class="cls-7" x="180.5" y="377.02" width="23.19" height="4.32" transform="translate(-232.47 399.8) rotate(-65.91)"/><path class="cls-7" d="M91.74,92.1a67.21,67.21,0,0,0,40.38,66.72,16.86,16.86,0,0,1-12.57,31.28c-1.07-.46-2.07-1-3.07-1.51a67.15,67.15,0,0,1-30.43-86A64,64,0,0,1,91.74,92.1Z"/><path class="cls-7" d="M466.84,203.24h0q4.1,12.8,6.9,25.94l.12.58c3.67,17.25,4.17,33-11.8,41.74h0a39,39,0,0,1-30.3,2.85,35.64,35.64,0,0,0-39.67,13.82c-12.49,14.55-32.79,20.61-53.47,20.61A68.13,68.13,0,0,1,274,262.31l-.05,0a69,69,0,0,0-65.09-46.11c-31.29,0-53.77,22.31-66.15,49.39l-21.41,46.82-2.74,4h0a22.54,22.54,0,0,1-23.57,9.84c-7.18-1.51-14.32-3.17-21.62-3.88l-2.33-.23a12.25,12.25,0,0,0-10.82,4.63L33.35,361.11l.1-.17a17.8,17.8,0,1,1-31-17.52S21.35,300.34,27,290.76a18.74,18.74,0,0,0,1.66-4.1,22.47,22.47,0,0,1,16.73-15.5,15.73,15.73,0,0,1,8.29.68l17.56,3.81a12.26,12.26,0,0,0,14.17-7.95l18.7-53.79a11.15,11.15,0,0,1,10.35-7.64c19.68,0,35.29-10.8,44.1-27.14a11.4,11.4,0,0,1,10-6.11H356.89A21.06,21.06,0,0,1,370.43,178,93.14,93.14,0,0,0,451.09,197C457.18,195.61,464.43,196.32,466.84,203.24Z"/><path class="cls-7" d="M515.88,83.83a40.11,40.11,0,0,0-24.21-26.39A11.81,11.81,0,0,1,484.39,48l-4.61-32.79A6.54,6.54,0,0,0,467.4,12.6h0L460,29.17h0a6.53,6.53,0,0,1-12.39-2.55l-4.4-21.07h0a6.54,6.54,0,0,0-12.69-1h0l-58.45,146.8a12.1,12.1,0,0,0,4.05,14.36,91.69,91.69,0,0,0,98.74,4.61A25.18,25.18,0,0,1,493,167.37a56.86,56.86,0,0,0,15.17,1.25c26.62-1.33,48.95-20.55,53.2-45.61a3.9,3.9,0,0,0,1.17.11,5.83,5.83,0,1,0,0-11.66,73.11,73.11,0,0,1-7.29.57,41.65,41.65,0,0,1-39.93-29.85"/></svg>